<svg xmlns="http://www.w3.org/2000/svg" version="1.1" xmlns:xlink="http://www.w3.org/1999/xlink" xmlns:svgjs="http://svgjs.dev/svgjs" width="1000" height="999" viewBox="0 0 1000 999"><g transform="matrix(1,0,0,1,-0.215743440233382,-0.21552769679306039)"><svg viewBox="0 0 343 343" data-background-color="#ffffff" preserveAspectRatio="xMidYMid meet" height="999" width="1000" xmlns="http://www.w3.org/2000/svg" xmlns:xlink="http://www.w3.org/1999/xlink"><g id="tight-bounds" transform="matrix(1,0,0,1,0.0740000000000407,0.07400000000001228)"><svg viewBox="0 0 342.85155851775386 342.85155851775386" height="342.85155851775386" width="342.85155851775386"><g><svg></svg></g><g><svg viewBox="0 0 342.85155851775386 342.85155851775386" height="342.85155851775386" width="342.85155851775386"><g><path d="M0 171.426c0-94.676 76.75-171.426 171.426-171.426 94.676 0 171.426 76.75 171.426 171.426 0 94.676-76.75 171.426-171.426 171.426-94.676 0-171.426-76.75-171.426-171.426zM171.426 333.685c89.613 0 162.26-72.646 162.259-162.259 0-89.613-72.646-162.26-162.259-162.26-89.613 0-162.26 72.646-162.26 162.26 0 89.613 72.646 162.26 162.26 162.259z" data-fill-palette-color="tertiary" fill="#8abe53" stroke="transparent"></path><ellipse rx="164.56874808852186" ry="164.56874808852186" cx="171.42577925887693" cy="171.42577925887693" fill="#8abe53" stroke="transparent" stroke-width="0" fill-opacity="1" data-fill-palette-color="tertiary"></ellipse></g><g transform="matrix(1,0,0,1,64.84655864529837,120.60462501534492)"><svg viewBox="0 0 213.1584412271571 101.64230848706401" height="101.64230848706401" width="213.1584412271571"><g><svg viewBox="0 0 213.1584412271571 101.64230848706401" height="101.64230848706401" width="213.1584412271571"><g><svg viewBox="0 0 213.1584412271571 101.64230848706401" height="101.64230848706401" width="213.1584412271571"><g><svg viewBox="0 0 213.1584412271571 101.64230848706401" height="101.64230848706401" width="213.1584412271571"><g id="textblocktransform"><svg viewBox="0 0 213.1584412271571 101.64230848706401" height="101.64230848706401" width="213.1584412271571" id="textblock"><g><svg viewBox="0 0 213.1584412271571 101.64230848706401" height="101.64230848706401" width="213.1584412271571"><g transform="matrix(1,0,0,1,0,0)"><svg width="213.1584412271571" viewBox="2.75 -35 73.4000015258789 35" height="101.64230848706401" data-palette-color="#ffffff"><path d="M13.9 0L4.1 0Q3.55 0 3.15-0.4 2.75-0.8 2.75-1.35L2.75-1.35 2.75-33.65Q2.75-34.2 3.15-34.6 3.55-35 4.1-35L4.1-35 18.9-35Q26.1-35 30.15-31.75 34.2-28.5 34.2-22.85L34.2-22.85Q34.2-19.5 32.68-17.03 31.15-14.55 28.8-13.05L28.8-13.05 34.95-1.65Q35.1-1.35 35.1-1.1L35.1-1.1Q35.1-0.65 34.77-0.33 34.45 0 34 0L34 0 23.75 0Q22.75 0 22.25-0.5 21.75-1 21.6-1.35L21.6-1.35 17.3-10.9 15.25-10.9 15.25-1.35Q15.25-0.8 14.85-0.4 14.45 0 13.9 0L13.9 0ZM15.25-25.7L15.25-20.4 18.9-20.4Q20.05-20.4 20.63-21.18 21.2-21.95 21.2-22.95L21.2-22.95Q21.2-23.95 20.68-24.83 20.15-25.7 18.9-25.7L18.9-25.7 15.25-25.7ZM49.25 0L40.2 0Q39.65 0 39.25-0.4 38.85-0.8 38.85-1.35L38.85-1.35 38.85-33.65Q38.85-34.2 39.25-34.6 39.65-35 40.2-35L40.2-35 48.1-35Q49.1-35 49.6-34.45 50.1-33.9 50.25-33.65L50.25-33.65 57.5-21.65 64.75-33.65Q64.9-33.9 65.4-34.45 65.9-35 66.9-35L66.9-35 74.8-35Q75.35-35 75.75-34.6 76.15-34.2 76.15-33.65L76.15-33.65 76.15-1.35Q76.15-0.8 75.75-0.4 75.35 0 74.8 0L74.8 0 65.75 0Q65.2 0 64.8-0.4 64.4-0.8 64.4-1.35L64.4-1.35 64.4-15.05 61.1-9.65Q60.85-9.25 60.42-8.83 60-8.4 59.25-8.4L59.25-8.4 55.75-8.4Q55-8.4 54.57-8.83 54.15-9.25 53.9-9.65L53.9-9.65 50.6-15.05 50.6-1.35Q50.6-0.8 50.2-0.4 49.8 0 49.25 0L49.25 0Z" opacity="1" transform="matrix(1,0,0,1,0,0)" fill="#ffffff" class="wordmark-text-0" data-fill-palette-color="quaternary" id="text-0"></path></svg></g></svg></g></svg></g></svg></g><g></g></svg></g></svg></g></svg></g></svg></g><defs></defs></svg><rect width="342.85155851775386" height="342.85155851775386" fill="none" stroke="none" visibility="hidden"></rect></g></svg></g></svg>